<svg width="228" height="262" viewBox="0 0 228 262" fill="none" xmlns="http://www.w3.org/2000/svg">
<path d="M114 0H228C228 0 228 127 228 152C228 177 224.909 191.891 206.5 210C188.091 228.109 114 262 114 262V0Z" fill="#00469B"/>
<path d="M114 14H216C216 14 216 128.397 216 150.916C216 173.435 213.234 186.849 196.763 203.16C180.292 219.472 114 250 114 250V14Z" fill="white"/>
<path d="M114 0H0C0 0 0 127 0 152C0 177 3.09109 191.891 21.5 210C39.9089 228.109 114 262 114 262V0Z" fill="#00469B"/>
<path d="M114 14H12C12 14 12 128.397 12 150.916C12 173.435 14.7657 186.849 31.2368 203.16C47.708 219.472 114 250 114 250V14Z" fill="white"/>
<rect x="29" y="71" width="171" height="8" fill="#00469B"/>
<path d="M36.4939 66H28.5849L40.636 31.0909H50.1474L62.1814 66H54.2724L45.528 39.0682H45.2553L36.4939 66ZM35.9996 52.2784H54.6814V58.0398H35.9996V52.2784ZM74.2438 31.0909V66H66.8632V31.0909H74.2438ZM92.3856 66V31.0909H115.499V37.1761H99.7663V45.4943H113.965V51.5795H99.7663V66H92.3856ZM128.069 31.0909V66H120.807V31.0909H128.069ZM146.195 66.5114C143.547 66.5114 141.258 65.9489 139.326 64.8239C137.405 63.6875 135.922 62.108 134.877 60.0852C133.831 58.0511 133.309 55.6932 133.309 53.0114C133.309 50.3068 133.831 47.9432 134.877 45.9205C135.922 43.8864 137.405 42.3068 139.326 41.1818C141.258 40.0455 143.547 39.4773 146.195 39.4773C148.843 39.4773 151.127 40.0455 153.047 41.1818C154.979 42.3068 156.468 43.8864 157.513 45.9205C158.559 47.9432 159.081 50.3068 159.081 53.0114C159.081 55.6932 158.559 58.0511 157.513 60.0852C156.468 62.108 154.979 63.6875 153.047 64.8239C151.127 65.9489 148.843 66.5114 146.195 66.5114ZM146.229 60.8864C147.434 60.8864 148.439 60.5455 149.246 59.8636C150.053 59.1705 150.661 58.2273 151.07 57.0341C151.491 55.8409 151.701 54.483 151.701 52.9602C151.701 51.4375 151.491 50.0795 151.07 48.8864C150.661 47.6932 150.053 46.75 149.246 46.0568C148.439 45.3636 147.434 45.017 146.229 45.017C145.013 45.017 143.991 45.3636 143.161 46.0568C142.343 46.75 141.723 47.6932 141.303 48.8864C140.894 50.0795 140.689 51.4375 140.689 52.9602C140.689 54.483 140.894 55.8409 141.303 57.0341C141.723 58.2273 142.343 59.1705 143.161 59.8636C143.991 60.5455 145.013 60.8864 146.229 60.8864ZM168.792 66L161.667 39.8182H169.013L173.07 57.4091H173.309L177.536 39.8182H184.746L189.042 57.3068H189.263L193.252 39.8182H200.581L193.473 66H185.786L181.286 49.5341H180.962L176.462 66H168.792Z" fill="#00469B"/>
<path d="M76.4464 102.867C84.9642 97.5808 106.585 117.005 124.737 146.251C142.889 175.498 150.699 203.493 142.182 208.78C140.293 209.952 137.76 209.907 134.764 208.812C136.132 208.909 137.334 208.663 138.338 208.04C146.137 203.199 138.985 177.565 122.364 150.785C105.743 124.005 85.9462 106.22 78.1465 111.061C74.563 113.285 74.1369 119.898 76.334 128.995C72.0229 115.735 71.718 105.802 76.4464 102.867Z" fill="#00469B"/>
<path d="M151.352 102.545C159.044 108.974 147.385 135.597 125.31 162.009C103.236 188.42 79.1058 204.619 71.4133 198.19C70.8828 197.747 70.4451 197.207 70.0957 196.578C77.5976 201.506 99.1959 186.792 118.989 163.109C139.203 138.925 149.879 114.546 142.835 108.659C138.489 105.027 128.412 109.285 116.582 118.76C132.056 104.867 145.873 97.9662 151.352 102.545Z" fill="#00469B"/>
<path d="M51.9356 144.721C57.4225 133.829 91.0205 129.565 126.979 135.198C162.936 140.83 187.638 154.226 182.152 165.118C180.52 168.358 176.399 171.012 170.468 172.993C173.982 171.429 176.423 169.528 177.506 167.323C182.177 157.804 159.762 146.262 127.44 141.544C95.1187 136.825 65.1299 140.717 60.4585 150.236C57.8105 155.631 63.8662 161.676 75.4961 166.76C57.9974 160.321 48.2853 151.968 51.9356 144.721Z" fill="#00469B"/>
<circle cx="78.5" cy="139.5" r="12.5" fill="#00469B"/>
<circle cx="147" cy="122" r="8" fill="#00469B"/>
<circle cx="165.5" cy="170.5" r="3.5" fill="#00469B"/>
<circle cx="141" cy="188" r="5" fill="#00469B"/>
</svg>
